<svg xmlns="http://www.w3.org/2000/svg" width="62.465" height="60" viewBox="0 0 62.465 60">
  <g id="Сгруппировать_1" data-name="Сгруппировать 1" transform="translate(-0.33 -3.805)">
    <path id="Контур_1" data-name="Контур 1" d="M213.428,9.767c.051.384-.111.586,0,1.011a.91.91,0,0,0,.465.637l.091.182a7.075,7.075,0,0,1,.445,1.354c.043.17.095.337.153.5a.464.464,0,0,0-.264.418.485.485,0,0,0,.283.434h.04a3.386,3.386,0,0,1,.04.515c-.024.2-.038.4-.045.6a.463.463,0,0,0-.319.439v.172c0,.007,0,.014,0,.021a.465.465,0,0,0,.465.464h18.532V16.5a.475.475,0,0,0,.475-.465V15.86a.474.474,0,0,0-.367-.451,5.723,5.723,0,0,1,0-.66,3.393,3.393,0,0,1,.027-.416.474.474,0,0,0,.4-.524c0-.006,0-.013,0-.019a.464.464,0,0,0-.37-.381,4.574,4.574,0,0,0,.13-.459,6.472,6.472,0,0,1,.455-1.354l.091-.182a.869.869,0,0,0,.455-.637c.111-.424-.051-.627,0-1.011s.96-1.1,1.5-1.687.222-.95-.152-1.122-.829.3-.93.414-.344-.121-.606-.121a.5.5,0,0,0-.566.242c-.121.222-.192.434-.323.434a.95.95,0,0,0-.627,0c-.232.141-.212.424-.384.253a.641.641,0,0,0-.121-.111l0,0a.6.6,0,0,0-.835.114c-.333.455.1.748,0,.94s-.273.263-.273.647.374.576.728.647a1.751,1.751,0,0,1,.176.041,13.548,13.548,0,0,0-1.035,1.09c-.6.717-1.021.657-1.465.344l-.029-.03c.057.029.114.058.17.09a.7.7,0,0,0,.869-.2.526.526,0,0,0-.071-.717c-.546-.242-.121-.242.071-.242a.566.566,0,0,0,.5-.263.647.647,0,0,0-.616-.94,2.29,2.29,0,0,0-.354.172c-.091.03-.475.222-.091-.172l.152-.192c.253-.384-.121-.95-.7-1.01H229.4a.667.667,0,0,0-.576.727c.091.647-.051.232-.323.172h-.091a.637.637,0,0,0-.778.445s-.081.455.162.546l.3.162c.263.111.061.1-.323.172a.515.515,0,0,0-.434.536.525.525,0,0,0,.485.546c.066.006.325-.019.586-.043a1.009,1.009,0,0,1-.637.457.808.808,0,0,1-.869-.111,1.121,1.121,0,0,1-.465-1.253,1.061,1.061,0,0,1,.434-.485,1.243,1.243,0,0,0,.475-.546.667.667,0,0,0,0-.657.928.928,0,0,0-.729-.354,2.16,2.16,0,0,1,1.022-.051c.606.02,1.243-.374,1.071-1.122s-1.314-.637-1.576-.606-.061-.081,0-.232.546-1.071-.253-1.354a1.252,1.252,0,0,0-1.512.735,5.323,5.323,0,0,0-.246-.988A1.94,1.94,0,0,0,224.017,3.8a1.92,1.92,0,0,0-1.111,1.273,5.549,5.549,0,0,0-.22,1.026l0-.006a1.263,1.263,0,0,0-1.546-.768c-.8.283-.323,1.2-.253,1.354s.263.263,0,.232-1.4-.141-1.586.606.485,1.142,1.071,1.122a2.191,2.191,0,0,1,1.154.093l-.053-.012a.93.93,0,0,0-.788.354.646.646,0,0,0-.051.647,1.313,1.313,0,0,0,.475.546,1.062,1.062,0,0,1,.435.485,1.081,1.081,0,0,1-.414,1.273.808.808,0,0,1-.869.121,1.12,1.12,0,0,1-.658-.506c.254.023.5.046.567.041a.525.525,0,0,0,.485-.546.515.515,0,0,0-.435-.536c-.384-.071-.586-.061-.323-.172l.3-.162c.273-.091.192-.546.192-.546a.637.637,0,0,0-.778-.445h-.091c-.283.061-.414.475-.333-.172a.657.657,0,0,0-.566-.727h-.192c-.566.061-.94.626-.687,1.01a1.265,1.265,0,0,0,.152.192c.384.394,0,.2-.091.172a1.863,1.863,0,0,0-.384-.172.556.556,0,0,0-.475.172.6.6,0,0,0-.141.768.566.566,0,0,0,.5.263c.192,0,.616,0,.071.242a.525.525,0,0,0-.071.717.7.7,0,0,0,.869.2c.075-.043.152-.083.23-.12-.032.034-.064.068-.1.1-.455.313-.869.374-1.465-.344a14.4,14.4,0,0,0-1.054-1.1,1.773,1.773,0,0,1,.256-.067c.344-.071.738-.263.738-.647s-.182-.455-.293-.647.344-.485,0-.94a.6.6,0,0,0-.835-.114l0,0a.578.578,0,0,0-.111.111c-.172.172-.162-.111-.384-.253a.95.95,0,0,0-.626,0c-.141,0-.212-.212-.333-.434a.5.5,0,0,0-.566-.242c-.253,0-.505.232-.606.121s-.556-.586-.919-.414-.7.536-.162,1.122S213.377,9.383,213.428,9.767Zm19.785,5.628h-1.1a.665.665,0,0,0,.271-.536q0-.01,0-.02a.675.675,0,0,0-.278-.536h1.137a3.738,3.738,0,0,0-.031.485Zm-1.5-1a.455.455,0,0,1,.4.465.445.445,0,0,1-.273.283.485.485,0,0,1-.6-.283A.465.465,0,0,1,231.717,14.394Zm-.687.465a.675.675,0,0,0,.277.536h-1.73a.665.665,0,0,0-.028-1.091h1.759A.676.676,0,0,0,231.03,14.859Zm-1.859-.465h.02a.455.455,0,0,1,.444.465.475.475,0,0,1-.394.394h-.008a.455.455,0,0,1-.507-.4A.465.465,0,0,1,229.17,14.394Zm-.657.455a.676.676,0,0,0,.277.546h-1.807a.675.675,0,0,0,.277-.536s0-.007,0-.01a.675.675,0,0,0-.277-.546h1.829A.666.666,0,0,0,228.514,14.849Zm-1.93-.455h.01a.455.455,0,0,1,.444.465h0a.445.445,0,0,1-.455.434.45.45,0,1,1,0-.9Zm-.677.455a.675.675,0,0,0,.277.546h-1.767a.676.676,0,0,0,.277-.536s0-.007,0-.01a.675.675,0,0,0-.277-.546h1.767A.675.675,0,0,0,225.907,14.849Zm-1.89-.455.01.01h.02a.455.455,0,0,1,.444.465s0,.008,0,.012a.445.445,0,0,1-.474.413.45.45,0,1,1,0-.9Zm-.677.455a.675.675,0,0,0,.277.546h-1.844a.676.676,0,0,0-.012-1.091h1.856A.675.675,0,0,0,223.34,14.849Zm-1.475.01a.444.444,0,0,1-.414.445.457.457,0,1,1,.414-.445Zm-1-.088a.676.676,0,0,0,.265.623H219.28a.665.665,0,0,0,.271-.536q0-.01,0-.02a.675.675,0,0,0-.277-.536h1.866A.676.676,0,0,0,220.861,14.772Zm-1.977-.377a.455.455,0,0,1,.434.434h0a.445.445,0,0,1-.455.434.455.455,0,0,1-.455-.445s0-.008,0-.012A.445.445,0,0,1,218.884,14.394Zm-.687.465a.675.675,0,0,0,.277.536h-1.757a.676.676,0,0,0,.277-.536s0-.007,0-.01a.675.675,0,0,0-.277-.546h1.757A.676.676,0,0,0,218.2,14.859Zm-1.879-.465a.465.465,0,0,1,.424.455.455.455,0,0,1-.313.3l-.006,0a.445.445,0,0,1-.55-.3A.455.455,0,0,1,216.318,14.394Zm-.677.455a.676.676,0,0,0,.277.546h-1.04a2.359,2.359,0,0,0,.015-.536,3.023,3.023,0,0,0-.031-.556h1.056A.675.675,0,0,0,215.641,14.849Zm17.925,1.021v.162a.253.253,0,0,1-.253.253H214.782a.253.253,0,0,1-.253-.253V15.9a.253.253,0,0,1,.253-.253v-.03h18.532A.253.253,0,0,1,233.566,15.87Zm0-2.071a.253.253,0,0,1-.253.253H214.691a.239.239,0,0,1,.091-.465l18.542-.03A.243.243,0,0,1,233.566,13.8Zm-1.147-1.355a.869.869,0,0,0,.2.092h0A.286.286,0,0,1,232.419,12.444ZM227.21,9.251a.434.434,0,0,1,0,.445,1.011,1.011,0,0,1-.4.445,1.354,1.354,0,0,0-.505.586,1.324,1.324,0,0,0,.505,1.546,1.011,1.011,0,0,0,1.081.131,1.354,1.354,0,0,0,.778-.616c.036-.054.074-.113.112-.174.073,0,.136-.008.181-.008.087.02.172.045.257.072a1.847,1.847,0,0,0,.43.524c.606.445,1.152.323,1.738-.384a15.087,15.087,0,0,1,1.178-1.209,1.746,1.746,0,0,1,.459.37.556.556,0,0,0,.3.364,1.192,1.192,0,0,0,.429.089,1.852,1.852,0,0,1-.55.972l-.01.007a.616.616,0,0,1-.859-.149.758.758,0,0,1-.1-.323c-.03-.131-.051-.253-.131-.253a.139.139,0,0,0-.029-.013l0-.007,0,0a.141.141,0,0,0-.118.015l-.121.172c-.253.3-.707,1.091-1.263,1.172a1.243,1.243,0,0,1-1.223-.384,1.635,1.635,0,0,1-.111-.253c-.051-.131-.091-.263-.192-.263a.172.172,0,0,0-.152.061,1.738,1.738,0,0,1-1.738.808,2.658,2.658,0,0,1-1.97-2.344,1.314,1.314,0,0,1,.313-1.081,1.859,1.859,0,0,1,1.112-.687A.657.657,0,0,1,227.21,9.251Zm-4.1-4.092a1.818,1.818,0,0,1,.94-1.122,1.849,1.849,0,0,1,.94,1.122,5.345,5.345,0,0,1,.231,1.3,8.991,8.991,0,0,0-.555,3.386,4.233,4.233,0,0,0,.586,2.314,3.5,3.5,0,0,0,.758.879c.091.121-.051.131-.515.121s-.879-.354-1.152-1.172a21.76,21.76,0,0,1-.3-3.84V13.4h-.03V8.15a23.908,23.908,0,0,1-.323,3.84c-.283.818-.7,1.162-1.152,1.172s-.616,0-.515-.121a3.5,3.5,0,0,0,.758-.879,4.133,4.133,0,0,0,.576-2.314,8.971,8.971,0,0,0-.482-3.258A5.111,5.111,0,0,1,223.108,5.159Zm-6.437,6.5c.566.707,1.111.818,1.738.384a1.809,1.809,0,0,0,.3-.339,3.118,3.118,0,0,1,.325-.1c.07,0,.185.008.316.018l.008.012a1.384,1.384,0,0,0,.778.616,1.061,1.061,0,0,0,1.091-.131,1.253,1.253,0,0,0,0-2.132,1.01,1.01,0,0,1-.414-.455.434.434,0,0,1,0-.445.687.687,0,0,1,.6-.253,1.879,1.879,0,0,1,1.122.687,1.344,1.344,0,0,1,.313,1.081,2.7,2.7,0,0,1-1.94,2.324,1.768,1.768,0,0,1-1.8-.808.172.172,0,0,0-.121-.061l.03-.091a.322.322,0,0,0-.192.263,2.739,2.739,0,0,1-.111.253,1.243,1.243,0,0,1-1.223.384c-.566-.081-1.051-.849-1.263-1.172l-.121-.182a.2.2,0,0,0-.152,0,.243.243,0,0,0-.131.253.757.757,0,0,1-.1.333.626.626,0,0,1-.869.141c-.228-.088-.4-.487-.507-.814a1.124,1.124,0,0,0,.336-.085.536.536,0,0,0,.344-.364,1.777,1.777,0,0,1,.58-.429A15.16,15.16,0,0,1,216.671,11.656Z" transform="translate(-192.464 0)" fill="#d5ab77"/>
    <path id="Контур_2" data-name="Контур 2" d="M173.134,219.5l.52.359,2.835,1.38a24.917,24.917,0,0,0,3.326,1.285l3.44,1.058,3.449-1.058a22.808,22.808,0,0,0,3.364-1.323l2.835-1.38.52-.359a14.279,14.279,0,0,0,6.237-11.831V184.379H166.85v23.285A14.326,14.326,0,0,0,173.134,219.5Zm3.251-13.362V195.275a8.032,8.032,0,0,0-.217-2.07c-.057-.142-.4-.283-1-.4a8.178,8.178,0,0,0-1.342-.18c-.085,0-.123-.123-.123-.35a.6.6,0,0,1,.123-.454c1.54,0,2.079.057,2.561.057h.5a2.382,2.382,0,0,1,1.8.86c1.578,1.89,5.5,5.954,10.395,12.285a.189.189,0,0,0,.255,0,.2.2,0,0,0,.066-.123v-.7l.057-8.571a10.624,10.624,0,0,0-.2-2.448c-.066-.142-.406-.293-1.039-.425a7.012,7.012,0,0,0-1.323-.208c-.085,0-.113-.1-.113-.312a.6.6,0,0,1,.113-.435l1.55.094c.775.057,1.436.076,1.975.076a16.984,16.984,0,0,0,1.947-.085l1.37-.085a1.238,1.238,0,0,1,.066.416c0,.217,0,.331-.123.331a7.315,7.315,0,0,0-1.285.227c-.671.142-1.03.284-1.068.406a10.149,10.149,0,0,0-.236,2.561v10.518c0,1.03,0,2.192.076,3.478a.453.453,0,0,1-.424.481h-.124a1.323,1.323,0,0,1-.945-.633l-11.623-13v9.582a10.84,10.84,0,0,0,.208,2.58c.047.132.378.265,1,.4a7.866,7.866,0,0,0,1.238.208c.057,0,.085.113.1.331a1.1,1.1,0,0,1-.047.463c-1.984-.085-3.109-.142-3.4-.142l-3.43.142c-.057,0-.085-.189-.085-.406s0-.387.085-.387a7.276,7.276,0,0,0,1.361-.208c.624-.132.945-.293,1.021-.454A7.562,7.562,0,0,0,176.385,206.142Z" transform="translate(-151.66 -164.46)" fill="#d5ab77"/>
    <path id="Контур_3" data-name="Контур 3" d="M54.409,188.466l.128-.241a2.647,2.647,0,0,1,1.812-.618,4.89,4.89,0,0,0,4.345-1.7,5.67,5.67,0,0,1,1.738-1.172c-1.667-.152-3.112-.576-4.587-.253-1.565.334-1.941,1.92-2.948,2.947.147-.34.287-.682.412-1.027.121-.273.232-.606.323-.869s.192-.566.273-.869c.019-.07.036-.14.054-.21a3.38,3.38,0,0,1,2.624-.952,2.657,2.657,0,0,0,2.476-1.334c.576-.788,1.172-1.536,1.738-2.314-1.758.323-3.628.263-4.971,1.748l-.152.192a4.99,4.99,0,0,1-1.544,1.951q.142-.647.241-1.3l.08-.114a4.6,4.6,0,0,1,.608-.681l.019.013a.485.485,0,1,0-.179-.648.494.494,0,0,0-.042.368c-.085.072-.171.144-.254.219-.046.044-.091.09-.137.135q.03-.259.054-.519a5.273,5.273,0,0,1,.376-.566c1.172-.829,2.7-.859,3.476-2.1a12.983,12.983,0,0,0,1.6-3.587c-2.506.283-3.628,1.223-4.244,3.557a2.475,2.475,0,0,1-1.136,1.659,20.425,20.425,0,0,0-.034-2.248,2.09,2.09,0,0,1,.766-.947c1.9-1.324,2.375-3.344,2.708-5.365a5.461,5.461,0,0,0,.091-.869c-2.53,1.141-3.4,3.581-3.657,6.089-.018-.186-.041-.372-.071-.561l-.111-.93a3.506,3.506,0,0,0-.071-.352,4.105,4.105,0,0,1,1.082-2.488,3.193,3.193,0,0,0,.818-3.153,10.481,10.481,0,0,1-.243-2.567,13.99,13.99,0,0,0-1.96,3.2A6.658,6.658,0,0,0,56,172.733a12.551,12.551,0,0,1,.038,1.281l-.007-.038a3.617,3.617,0,0,0-.091-.455c-.152-.606-.283-1.213-.465-1.809-.091-.273-.172-.566-.273-.869l-.082-.234a2.577,2.577,0,0,1,.435-1.271c1.314-1.829,1.172-3.981.3-6.709a11.368,11.368,0,0,0-1.485,3.405c-.2,1.172.454,2.708.52,3.925-.237-.686-.783-1.934-1.337-3.13.04-.264.1-.692.151-1.128a4.815,4.815,0,0,1,.186-.91h.006a.485.485,0,1,0-.465-.485.491.491,0,0,0,.188.389c-.03.082-.059.165-.087.248a8.4,8.4,0,0,0-.308,1.186c-.24-.506-.471-.977-.666-1.363a3.644,3.644,0,0,1-.067-.551,3.4,3.4,0,0,0-1.94-3.092c-.707-.384-1.324-.566-2.193-1.01.021.192.034.4.043.6h.834V163.9a4.85,4.85,0,0,0,1.6.765c.141.061.889.242,1.01.3a2.212,2.212,0,0,1,.384.273q.614,1.174,1.139,2.391a16.873,16.873,0,0,1-1.947-1.826,3.708,3.708,0,0,0-2.162-1.01v2.87a12.843,12.843,0,0,0,3.728.414,1.364,1.364,0,0,1,.625.134q.318.777.6,1.569a7.942,7.942,0,0,0-.771-.38c-.087-.037-.175-.072-.263-.106a.49.49,0,0,0-.163-.389.465.465,0,1,0,.05.67c.007-.007.011-.016.017-.024a5.229,5.229,0,0,1,.783.455c.192.138.385.271.559.388a23.905,23.905,0,0,1,1.112,4.751,3.283,3.283,0,0,1-1.035-1.572,4.153,4.153,0,0,0-2.627-3.173c-.566-.192-1.051-.434-1.576-.647l-.162.081c.465,1.981,1.334,3.658,3.355,4.456a4.324,4.324,0,0,1,2.127,1.575q.069.706.1,1.415.058,1,.025,2.006a12.427,12.427,0,0,1-.884-1.9,3.738,3.738,0,0,0-1.182-2.021,17.533,17.533,0,0,0-3.83-1.829c.7,2.516,1.869,4.416,4.254,5.335a6.835,6.835,0,0,1,1.111.738,1.787,1.787,0,0,1,.486.547c-.017.242-.037.485-.062.726a20.073,20.073,0,0,1-.464,2.534,6.805,6.805,0,0,1-.486-.726,2.3,2.3,0,0,1-.232-.687,4.466,4.466,0,0,0-.869-2.273,23.629,23.629,0,0,0-2.789-2.425s.091.667.091.869c.192,1.7.525,3.415,1.738,4.143a12.114,12.114,0,0,0,1.506.839,1.76,1.76,0,0,1,.853.963c-.028.1-.056.194-.085.29q-.131.425-.281.843a7.39,7.39,0,0,0-.173-.742c-.027-.093-.057-.185-.087-.278a.49.49,0,0,0,.211-.381.465.465,0,1,0-.489.461h.01a5.188,5.188,0,0,1,.142.916c0,.3.022.6.055.895q-.18.442-.378.876c-.838-1.073-.519-2.374-1.283-3.266a7.417,7.417,0,0,0-2.849-2.1c-.121,2.93.515,3.971,3.031,5.133.487.218.805.5.773.919l-.035.071c-.1.222-.212.445-.333.657l-.121.232-.042.078q-.068-.351-.17-.695c-.023-.088-.048-.175-.075-.261a.491.491,0,0,0,.226-.392.465.465,0,1,0-.494.46,4.84,4.84,0,0,1,.14.921c0,.2.012.391.026.586q-.119.2-.238.4v.061l-.253.414-.245.386a.213.213,0,0,1-.037.008c-.5.051-.707-.768-.707-1.354a3.971,3.971,0,0,0-2.021-3.314l-.333,4.042a4.88,4.88,0,0,0,1.627.445c.739.092,1.082.385,1.024.853l-.2.289a.62.62,0,0,1-.071.1c-.121.182-.263.354-.394.536a18.538,18.538,0,0,1-1.18,1.5.566.566,0,0,1-.225-.548,3.031,3.031,0,0,0-.738-2.021l-1.01,2.7c.563.086,1.361-.026,1.575.311q-.429.46-.887.891c-.179.157-.365.316-.562.476.02-.094.04-.189.057-.284s.035-.181.05-.273a.49.49,0,0,0,.367-.247.465.465,0,1,0-.644.192h0a5.507,5.507,0,0,1-.28.872l-.058.136c-2.056,1.557-5.282,3.3-12.067,5.492-1.132.344-2.061.626-2.93.869q-.384.1-.764.206-.379-.109-.762-.206c-.869-.243-1.8-.525-2.94-.869-6.805-2.195-9.987-3.945-12.065-5.505l-.051-.123a4.774,4.774,0,0,1-.289-.883h0a.485.485,0,1,0-.644-.192.49.49,0,0,0,.361.245c.016.1.034.2.056.3.016.084.035.168.054.251-.195-.156-.381-.311-.56-.463q-.477-.437-.921-.907c.2-.52,1.04-.276,1.609-.356l-1.01-2.708a3.031,3.031,0,0,0-.768,2.021.565.565,0,0,1-.266.569q-.615-.694-1.159-1.448l-.394-.536-.071-.1-.227-.336c-.052-.468.3-.784,1.016-.876a4.81,4.81,0,0,0,1.627-.445c-.1-1.334-.212-2.7-.333-4.042a3.951,3.951,0,0,0-2.021,3.3c-.04.586-.131,1.394-.707,1.354a.266.266,0,0,1-.042-.007l-.191-.307-.263-.414v-.061q-.1-.162-.192-.328c.017-.2.03-.431.03-.662a5.173,5.173,0,0,1,.15-.919h.006a.485.485,0,1,0-.489-.461.491.491,0,0,0,.2.374c-.029.092-.056.184-.08.278-.07.246-.127.494-.174.745l-.069-.129-.131-.232c-.111-.212-.232-.434-.333-.657-.024-.051-.047-.1-.071-.154-.033-.416.278-.7.758-.917,2.526-1.162,3.163-2.2,3.031-5.133a7.336,7.336,0,0,0-2.849,2.1c-.757.883-.462,2.157-1.26,3.232q-.161-.38-.309-.766c.023-.25.05-.568.073-.89a4.82,4.82,0,0,1,.117-.849.486.486,0,1,0-.495-.461.491.491,0,0,0,.222.39q-.03.1-.056.2c-.068.245-.124.493-.17.743q-.141-.419-.265-.844-.062-.206-.12-.413a1.793,1.793,0,0,1,.847-.931,14.311,14.311,0,0,0,1.506-.8c1.223-.728,1.556-2.445,1.738-4.143.03-.192.091-.869.091-.869a23.633,23.633,0,0,0-2.789,2.425,4.465,4.465,0,0,0-.869,2.274,2.3,2.3,0,0,1-.232.687,6.806,6.806,0,0,1-.463.694,19.2,19.2,0,0,1-.427-2.453q-.053-.418-.087-.838a1.777,1.777,0,0,1,.451-.486,6.515,6.515,0,0,1,1.122-.738c2.374-.919,3.547-2.819,4.244-5.335a17.578,17.578,0,0,0-3.83,1.839,3.84,3.84,0,0,0-1.162,2.1,11.38,11.38,0,0,1-.871,1.887A19.452,19.452,0,0,1,7.4,177.29q.024-.682.087-1.361a4.334,4.334,0,0,1,2.146-1.549c2.051-.8,2.88-2.445,3.345-4.466l-.111-.111c-.566.222-1.051.455-1.576.657a4.143,4.143,0,0,0-2.678,3.122,3.273,3.273,0,0,1-1.044,1.6,23.578,23.578,0,0,1,1.111-4.777c.173-.117.366-.251.56-.39a5.428,5.428,0,0,1,.789-.456c.007.008.011.017.018.026a.485.485,0,1,0,.05-.67.49.49,0,0,0-.163.4c-.087.034-.174.068-.261.105-.269.118-.532.25-.788.394q.283-.8.6-1.578a1.363,1.363,0,0,1,.669-.15,12.926,12.926,0,0,0,3.729-.414V164.8a3.738,3.738,0,0,0-2.172,1.01,16.33,16.33,0,0,1-1.942,1.75q.562-1.294,1.224-2.541a2.162,2.162,0,0,1,.344-.22c.1-.061.869-.243,1.01-.293a4.931,4.931,0,0,0,1.679-.825v-2.967h.783c.008-.255.01-.51,0-.765-.829.434-1.485.616-2.193,1.011a3.4,3.4,0,0,0-1.93,3.092,3.839,3.839,0,0,1-.073.557c-.212.408-.471.934-.742,1.505a7.48,7.48,0,0,0-.306-1.173c-.026-.084-.055-.167-.085-.25a.491.491,0,0,0,.186-.387.465.465,0,1,0-.465.485h.013a4.818,4.818,0,0,1,.2.91c.047.412.1.816.144,1.083-.5,1.081-1,2.211-1.288,2.935.082-1.2.712-2.664.517-3.8a11.632,11.632,0,0,0-1.485-3.405c-.919,2.728-.919,4.88.293,6.73a2.535,2.535,0,0,1,.427,1.155l-.154.442c-.1.3-.172.6-.273.869-.182.6-.313,1.2-.455,1.809q-.036.11-.061.224-.02-.5,0-1a6.74,6.74,0,0,0,.131-2.7,13.137,13.137,0,0,0-1.92-3.1,10.892,10.892,0,0,1-.283,2.556,3.193,3.193,0,0,0,.818,3.153A4.013,4.013,0,0,1,6.9,174.836c-.037.161-.081.323-.1.484l-.111.93a3.474,3.474,0,0,1-.051.516c-.31-2.451-1.239-4.792-3.627-5.912a8.42,8.42,0,0,1,.091.869c.333,2.081.808,4.052,2.708,5.365a2.117,2.117,0,0,1,.719.873,20.216,20.216,0,0,0,0,2.323,2.515,2.515,0,0,1-1.125-1.66c-.616-2.324-1.738-3.264-4.244-3.547a12.925,12.925,0,0,0,1.6,3.577c.661,1.021,1.822,1.2,2.856,1.721a.446.446,0,0,0-.094.037.485.485,0,0,0,.46.854l.015-.01a4.744,4.744,0,0,1,.613.682l.109.153q.136.913.356,1.813A4.87,4.87,0,0,1,5.453,181.9l-.152-.192c-1.344-1.526-3.233-1.465-4.971-1.738.566.778,1.162,1.516,1.7,2.314a2.657,2.657,0,0,0,2.506,1.283,3.376,3.376,0,0,1,2.726,1.063l0,.008c.071.3.182.606.263.869a8.343,8.343,0,0,0,.323.869c.157.414.33.822.51,1.23-1.083-.987-1.457-2.739-3.1-3.089-1.475-.293-2.91.131-4.587.283a5.223,5.223,0,0,1,1.8,1.172,4.891,4.891,0,0,0,4.355,1.687,2.677,2.677,0,0,1,1.885.7c.012.025.023.05.034.076.051.121.172.384.293.616q.308.6.652,1.178c-.478.13-1-.454-1.329-.753a4.678,4.678,0,0,0-6.063-.232,9.736,9.736,0,0,0,1.01.667c1.849,1.091,3.638,2.1,5.891.95a.859.859,0,0,1,.838-.066q.193.3.4.6.2.318.42.627c-.172-.05-.346-.095-.521-.132l-.276-.047a.49.49,0,0,0-.239-.369.465.465,0,1,0,.179.647l0-.009a5.054,5.054,0,0,1,.867.3c.132.06.263.117.389.172q.592.8,1.253,1.552a2.657,2.657,0,0,1-2.046-.693c-2.344-1.748-4.688-1.627-6.962.394a12.665,12.665,0,0,0,2.465,1.273,5.163,5.163,0,0,0,4.981-.172,2.111,2.111,0,0,1,2.278-.027l.128.132c-.182,0-.365.011-.547.026l-.092.007a.5.5,0,0,0-.305-.236.467.467,0,1,0,.35.577.448.448,0,0,0,.012-.067,4.893,4.893,0,0,1,.692.053l.291.039c.1.1.209.2.316.3.333.3.691.6,1.089.9.117.115.233.232.346.351-.94.243-1.536-.4-2.233-.768A4.639,4.639,0,0,0,10.434,196a8.276,8.276,0,0,0-3.506,2.213c2.87.909,5.578,2.183,8.084-.424a1.809,1.809,0,0,1,1.348-.293q.282.184.589.37c-.234.052-.465.113-.694.185-.086.028-.171.059-.256.09a.491.491,0,0,0-.394-.2.465.465,0,1,0,.478.476,4.756,4.756,0,0,1,.909-.17c.171-.017.34-.037.5-.057q.26.149.54.3c.016.036.033.072.051.111.111.232-.192.323-.333.445a1.657,1.657,0,0,1-1.455.222,3.718,3.718,0,0,0-4.345,2.213,11.7,11.7,0,0,0-.657,1.505s1.839.162,2.021.162c2.172,0,3.486-.445,4.163-2.577a3.914,3.914,0,0,1,.505-.869,1.008,1.008,0,0,1,.131-.232,1.149,1.149,0,0,1,.931-.458q.511.252,1.082.511c.137.161.06.314-.275.583-.515.414-1.112.717-1.617,1.132a1.617,1.617,0,0,0-.687,1.96c.323.889.758,1.738,1.192,2.7.546-.647,1.061-1,1.556-1.516,1.081-.98,1.354-1.738.485-3.587-.154-.317-.409-.742-.017-.987,1.791.778,4.018,1.609,6.848,2.513.871.275,1.631.5,2.318.695q-.179.065-.357.134a24.629,24.629,0,0,1-2.849,1.243l.5,1.01c.02-.01,1.748-.889,2.758-1.344.528-.207,1.063-.4,1.6-.568.539.172,1.073.36,1.6.568,1.01.455,2.738,1.334,2.758,1.344l.485-.859c-.131-.03-1.738-.9-2.89-1.394l-.335-.126c.694-.193,1.465-.424,2.356-.7,2.739-.876,4.907-1.684,6.663-2.441.548.251.264.694.1,1.036-.879,1.849-.606,2.587.485,3.6.5.5,1,.889,1.556,1.506.424-.95.839-1.819,1.192-2.688a1.647,1.647,0,0,0-.687-2.021c-.515-.4-1.233-.8-1.617-1.132-.3-.259-.388-.475-.153-.687q.446-.2.854-.4a1.152,1.152,0,0,1,1.169.686,3.907,3.907,0,0,1,.505.869c.667,2.122,1.95,2.607,4.143,2.607.142,0,2.021-.162,2.021-.162a13.369,13.369,0,0,0-.667-1.506,3.718,3.718,0,0,0-4.345-2.213,1.607,1.607,0,0,1-1.445-.222c-.142-.121-.414-.283-.344-.445.025-.058.055-.127.091-.194q.294-.159.567-.315c.155.019.318.038.484.054a4.779,4.779,0,0,1,.912.174s0,0,0,0a.485.485,0,1,0,.479-.471.49.49,0,0,0-.4.21c-.1-.038-.2-.074-.3-.108q-.315-.1-.637-.177.2-.124.4-.246a1.808,1.808,0,0,1,1.452.211c2.536,2.587,5.234,1.293,8.083.424a8.305,8.305,0,0,0-3.486-2.213,4.68,4.68,0,0,0-2.829.232c-.707.364-1.293,1.031-2.233.778q.127-.145.258-.286c.47-.348.888-.69,1.278-1.028.109-.1.216-.206.323-.31l.243-.034a4.945,4.945,0,0,1,.93-.048c0,.006,0,.012,0,.018a.485.485,0,1,0,.349-.574.49.49,0,0,0-.333.3c-.1-.01-.195-.019-.292-.024-.167-.014-.335-.022-.5-.026.109-.111.219-.221.326-.334a2.092,2.092,0,0,1,2.006.167,5.163,5.163,0,0,0,4.982.172,12.581,12.581,0,0,0,2.455-1.273c-2.263-2.011-4.608-2.132-6.952-.394a2.657,2.657,0,0,1-1.923.7q.651-.743,1.235-1.541l.295-.131a5.178,5.178,0,0,1,.886-.306l0,.007a.485.485,0,1,0,.179-.647.49.49,0,0,0-.239.371l-.294.05c-.149.032-.3.07-.443.111q.206-.3.4-.606.252-.353.484-.719a.867.867,0,0,1,.678.123c2.243,1.152,4.052.141,5.891-.95.354-.2.707-.434,1.071-.667a4.688,4.688,0,0,0-6.063.232c-.313.288-.81.837-1.273.765q.318-.538.6-1.1A2.627,2.627,0,0,0,54.409,188.466ZM6.463,181.281c-.092-.086-.186-.169-.282-.251a.484.484,0,0,0,.017-.3l.032.023a5.236,5.236,0,0,1,.385.583c0,.032.007.064.011.1C6.572,181.383,6.519,181.331,6.463,181.281Z" transform="translate(0 -142.212)" fill="#d5ab77"/>
  </g>
</svg>
