<svg id="Icon" xmlns="http://www.w3.org/2000/svg" xmlns:xlink="http://www.w3.org/1999/xlink" width="32.176" height="32" viewBox="0 0 32.176 32">
  <defs>
    <clipPath id="clip-path">
      <rect id="Прямоугольник_54" data-name="Прямоугольник 54" width="32.176" height="32" fill="#fff"/>
    </clipPath>
  </defs>
  <g id="Сгруппировать_34" data-name="Сгруппировать 34" clip-path="url(#clip-path)">
    <path id="Контур_42" data-name="Контур 42" d="M11.8,11.373a1.4,1.4,0,0,0-1.4,1.4,1.417,1.417,0,0,0,1.4,1.4,1.4,1.4,0,1,0,0-2.808" fill="#fff"/>
    <path id="Контур_43" data-name="Контур 43" d="M20.379,17.8a1.4,1.4,0,0,0-1.4,1.4,1.417,1.417,0,0,0,1.4,1.4,1.4,1.4,0,1,0,0-2.808" fill="#fff"/>
    <path id="Контур_44" data-name="Контур 44" d="M28.051,17.081l4.125-2.948-4.648-2.027L30.1,7.735l-5.07.04L25.6,2.736l-4.616,2.1L19.451,0,16.088,3.8,12.724,0,11.195,4.835l-4.616-2.1.57,5.039-5.071-.04,2.57,4.371L0,14.133l4.125,2.948L.7,20.823,5.67,21.838l-1.6,4.81,4.951-1.093L9.508,30.6l4.079-3.012,2.5,4.41,2.5-4.41L22.667,30.6l.491-5.047,4.951,1.093-1.6-4.81,4.968-1.015ZM9.474,15.1a3.285,3.285,0,0,1,0-4.645,3.283,3.283,0,0,1,4.644,0,3.288,3.288,0,0,1,.005,4.645,3.289,3.289,0,0,1-4.649,0m3.708,7.47H11.814l7.16-13.139h1.343ZM22.7,21.528a3.288,3.288,0,0,1-4.645-4.654A3.288,3.288,0,0,1,22.7,21.528" fill="#fff"/>
  </g>
</svg>
