<svg id="Phone" xmlns="http://www.w3.org/2000/svg" xmlns:xlink="http://www.w3.org/1999/xlink" width="27.02" height="27.008" viewBox="0 0 27.02 27.008">
  <defs>
    <clipPath id="clip-path">
      <rect id="Прямоугольник_29" data-name="Прямоугольник 29" width="27.02" height="27.008" transform="translate(0 0)" fill="none"/>
    </clipPath>
  </defs>
  <g id="Сгруппировать_21" data-name="Сгруппировать 21" transform="translate(0 0)" clip-path="url(#clip-path)">
    <path id="Контур_15" data-name="Контур 15" d="M26.553,23.419,25.18,24.792c-3.553,3.552-7.878,2.832-12.854-2.143L4.37,14.693C2.059,12.382.65,10.179.179,8.145A6.407,6.407,0,0,1,2.227,1.839L3.6.466A1.58,1.58,0,0,1,5.464.186c1.782.943,3.926,4.574,3.944,4.6a1.662,1.662,0,0,1,.247,1.188.728.728,0,0,1-.37.452L9.2,6.487a16.063,16.063,0,0,0-1.79,1.656,4.5,4.5,0,0,0-.666,1.442,7.694,7.694,0,0,1-.8-2.641.541.541,0,1,0-1.076.112,10.338,10.338,0,0,0,3.44,6.313.463.463,0,0,0,.043.024L14.1,19.135c.024.024.05.046.074.07a.636.636,0,0,0,.056.083A11.292,11.292,0,0,0,20.5,22.146a.511.511,0,0,0,.056,0,.541.541,0,0,0,.055-1.08,9.509,9.509,0,0,1-3-.842,4.715,4.715,0,0,0,1.261-.62,16.057,16.057,0,0,0,1.656-1.79l.056-.082a.736.736,0,0,1,.453-.37,1.666,1.666,0,0,1,1.182.244c.037.021,3.667,2.165,4.61,3.947a1.576,1.576,0,0,1-.28,1.863" fill="#fff"/>
  </g>
</svg>
